<svg width="30" height="30" viewBox="0 0 30 30" fill="none" xmlns="http://www.w3.org/2000/svg">
<rect x="0.5" y="0.499756" width="29" height="29" rx="8.5" stroke="#F2F2F2"/>
<path d="M13.6 19.7998C13.8122 19.7998 14.0157 19.7155 14.1657 19.5654C14.3157 19.4154 14.4 19.2119 14.4 18.9998V14.1998C14.4 13.9876 14.3157 13.7841 14.1657 13.6341C14.0157 13.484 13.8122 13.3998 13.6 13.3998C13.3878 13.3998 13.1843 13.484 13.0343 13.6341C12.8843 13.7841 12.8 13.9876 12.8 14.1998V18.9998C12.8 19.2119 12.8843 19.4154 13.0343 19.5654C13.1843 19.7155 13.3878 19.7998 13.6 19.7998ZM21.6 10.1998H18.4V9.39976C18.4 8.76324 18.1471 8.15279 17.6971 7.7027C17.247 7.25261 16.6365 6.99976 16 6.99976H14.4C13.7635 6.99976 13.153 7.25261 12.7029 7.7027C12.2529 8.15279 12 8.76324 12 9.39976V10.1998H8.8C8.58783 10.1998 8.38434 10.284 8.23431 10.4341C8.08429 10.5841 8 10.7876 8 10.9998C8 11.2119 8.08429 11.4154 8.23431 11.5654C8.38434 11.7155 8.58783 11.7998 8.8 11.7998H9.6V20.5998C9.6 21.2363 9.85286 21.8467 10.3029 22.2968C10.753 22.7469 11.3635 22.9998 12 22.9998H18.4C19.0365 22.9998 19.647 22.7469 20.0971 22.2968C20.5471 21.8467 20.8 21.2363 20.8 20.5998V11.7998H21.6C21.8122 11.7998 22.0157 11.7155 22.1657 11.5654C22.3157 11.4154 22.4 11.2119 22.4 10.9998C22.4 10.7876 22.3157 10.5841 22.1657 10.4341C22.0157 10.284 21.8122 10.1998 21.6 10.1998ZM13.6 9.39976C13.6 9.18758 13.6843 8.9841 13.8343 8.83407C13.9843 8.68404 14.1878 8.59976 14.4 8.59976H16C16.2122 8.59976 16.4157 8.68404 16.5657 8.83407C16.7157 8.9841 16.8 9.18758 16.8 9.39976V10.1998H13.6V9.39976ZM19.2 20.5998C19.2 20.8119 19.1157 21.0154 18.9657 21.1654C18.8157 21.3155 18.6122 21.3998 18.4 21.3998H12C11.7878 21.3998 11.5843 21.3155 11.4343 21.1654C11.2843 21.0154 11.2 20.8119 11.2 20.5998V11.7998H19.2V20.5998ZM16.8 19.7998C17.0122 19.7998 17.2157 19.7155 17.3657 19.5654C17.5157 19.4154 17.6 19.2119 17.6 18.9998V14.1998C17.6 13.9876 17.5157 13.7841 17.3657 13.6341C17.2157 13.484 17.0122 13.3998 16.8 13.3998C16.5878 13.3998 16.3843 13.484 16.2343 13.6341C16.0843 13.7841 16 13.9876 16 14.1998V18.9998C16 19.2119 16.0843 19.4154 16.2343 19.5654C16.3843 19.7155 16.5878 19.7998 16.8 19.7998Z" fill="#F26E6E"/>
</svg>
