<svg width="30" height="30" viewBox="0 0 30 30" fill="none" xmlns="http://www.w3.org/2000/svg">
<rect x="0.5" y="0.499756" width="29" height="29" rx="8.5" stroke="#F2F2F2"/>
<path d="M22.2051 15.0071C21.9928 15.0071 21.7893 15.0914 21.6392 15.2415C21.4891 15.3915 21.4048 15.5951 21.4048 15.8073V20.609C21.4048 20.8212 21.3205 21.0247 21.1704 21.1748C21.0204 21.3249 20.8168 21.4092 20.6046 21.4092H9.4008C9.18856 21.4092 8.98501 21.3249 8.83493 21.1748C8.68485 21.0247 8.60054 20.8212 8.60054 20.609V9.4052C8.60054 9.19296 8.68485 8.9894 8.83493 8.83933C8.98501 8.68925 9.18856 8.60493 9.4008 8.60493H14.2024C14.4147 8.60493 14.6182 8.52062 14.7683 8.37054C14.9184 8.22046 15.0027 8.01691 15.0027 7.80466C15.0027 7.59242 14.9184 7.38887 14.7683 7.23879C14.6182 7.08871 14.4147 7.0044 14.2024 7.0044H9.4008C8.76407 7.0044 8.15342 7.25734 7.70318 7.70758C7.25294 8.15781 7 8.76847 7 9.4052V20.609C7 21.2457 7.25294 21.8563 7.70318 22.3066C8.15342 22.7568 8.76407 23.0098 9.4008 23.0098H20.6046C21.2413 23.0098 21.8519 22.7568 22.3022 22.3066C22.7524 21.8563 23.0054 21.2457 23.0054 20.609V15.8073C23.0054 15.5951 22.921 15.3915 22.771 15.2415C22.6209 15.0914 22.4173 15.0071 22.2051 15.0071ZM10.2011 15.6153V19.0084C10.2011 19.2207 10.2854 19.4242 10.4355 19.5743C10.5855 19.7244 10.7891 19.8087 11.0013 19.8087H14.3945C14.4998 19.8093 14.6042 19.7891 14.7017 19.7493C14.7992 19.7095 14.8879 19.6508 14.9627 19.5766L20.5005 14.0307L22.7733 11.806C22.8483 11.7316 22.9078 11.6431 22.9485 11.5456C22.9891 11.4481 23.01 11.3435 23.01 11.2378C23.01 11.1322 22.9891 11.0276 22.9485 10.93C22.9078 10.8325 22.8483 10.744 22.7733 10.6696L19.3801 7.23647C19.3057 7.16147 19.2172 7.10193 19.1197 7.0613C19.0222 7.02067 18.9176 6.99976 18.812 6.99976C18.7063 6.99976 18.6017 7.02067 18.5042 7.0613C18.4067 7.10193 18.3182 7.16147 18.2438 7.23647L15.987 9.50123L10.4331 15.0471C10.359 15.1219 10.3003 15.2105 10.2605 15.3081C10.2206 15.4056 10.2005 15.51 10.2011 15.6153ZM18.812 8.93304L21.0767 11.1978L19.9403 12.3342L17.6756 10.0694L18.812 8.93304ZM11.8016 15.9434L16.5472 11.1978L18.812 13.4626L14.0664 18.2081H11.8016V15.9434Z" fill="#8146FF"/>
</svg>
