<svg width="48" height="48" viewBox="0 0 48 48" fill="none" xmlns="http://www.w3.org/2000/svg">
<rect width="48" height="48" rx="12" fill="#FFFBEB"/>
<path d="M18 33C19.1046 33 20 32.1046 20 31C20 29.8954 19.1046 29 18 29C16.8954 29 16 29.8954 16 31C16 32.1046 16.8954 33 18 33Z" stroke="#F6A723" stroke-width="1.5" stroke-linecap="round" stroke-linejoin="round"/>
<path d="M29 33C30.1046 33 31 32.1046 31 31C31 29.8954 30.1046 29 29 29C27.8954 29 27 29.8954 27 31C27 32.1046 27.8954 33 29 33Z" stroke="#F6A723" stroke-width="1.5" stroke-linecap="round" stroke-linejoin="round"/>
<path d="M29 29H18V15H16" stroke="#F6A723" stroke-width="1.5" stroke-linecap="round" stroke-linejoin="round"/>
<path d="M32 18L31 25H18" stroke="#F6A723" stroke-width="1.5" stroke-linecap="round" stroke-linejoin="round"/>
<path d="M22 22L28 16" stroke="#F6A723" stroke-width="1.5" stroke-linecap="round" stroke-linejoin="round"/>
<path d="M22.5 17C22.7761 17 23 16.7761 23 16.5C23 16.2239 22.7761 16 22.5 16C22.2239 16 22 16.2239 22 16.5C22 16.7761 22.2239 17 22.5 17Z" stroke="#F6A723" stroke-width="1.5" stroke-linecap="round" stroke-linejoin="round"/>
<path d="M27.5 22C27.7761 22 28 21.7761 28 21.5C28 21.2239 27.7761 21 27.5 21C27.2239 21 27 21.2239 27 21.5C27 21.7761 27.2239 22 27.5 22Z" stroke="#F6A723" stroke-width="1.5" stroke-linecap="round" stroke-linejoin="round"/>
</svg>
