<svg width="48" height="48" viewBox="0 0 48 48" fill="none" xmlns="http://www.w3.org/2000/svg">
<rect width="48" height="48" rx="12" fill="#F8FAFC"/>
<path d="M24 33C28.9706 33 33 28.9706 33 24C33 19.0294 28.9706 15 24 15C19.0294 15 15 19.0294 15 24C15 28.9706 19.0294 33 24 33Z" stroke="#38BDF8" stroke-width="2" stroke-linecap="round" stroke-linejoin="round"/>
<path d="M26.8 21C26.6188 20.6858 26.3557 20.4267 26.0386 20.2506C25.7215 20.0744 25.3625 19.9878 25 20H23C22.4696 20 21.9609 20.2107 21.5858 20.5858C21.2107 20.9609 21 21.4696 21 22C21 22.5304 21.2107 23.0391 21.5858 23.4142C21.9609 23.7893 22.4696 24 23 24H25C25.5304 24 26.0391 24.2107 26.4142 24.5858C26.7893 24.9609 27 25.4696 27 26C27 26.5304 26.7893 27.0391 26.4142 27.4142C26.0391 27.7893 25.5304 28 25 28H23C22.6375 28.0122 22.2785 27.9256 21.9614 27.7495C21.6443 27.5733 21.3812 27.3142 21.2 27" stroke="#38BDF8" stroke-width="2" stroke-linecap="round" stroke-linejoin="round"/>
<path d="M24 28V30M24 18V20V18Z" stroke="#38BDF8" stroke-width="2" stroke-linecap="round" stroke-linejoin="round"/>
</svg>
