<svg width="21" height="21" viewBox="0 0 21 21" fill="none" xmlns="http://www.w3.org/2000/svg">
<path d="M11.4729 13.7535C11.6416 12.5286 12.603 11.5729 13.8352 11.4052C14.5419 11.309 15.3095 11.2295 15.9173 11.2295C16.5251 11.2295 17.2927 11.309 17.9995 11.4052C19.2317 11.5729 20.193 12.5286 20.3617 13.7535C20.4585 14.4561 20.5385 15.2192 20.5385 15.8234C20.5385 16.4276 20.4585 17.1907 20.3617 17.8933C20.193 19.1183 19.2317 20.0739 17.9995 20.2417C17.2927 20.3379 16.5251 20.4174 15.9173 20.4174C15.3095 20.4174 14.5419 20.3379 13.8352 20.2417C12.603 20.0739 11.6416 19.1183 11.4729 17.8933C11.3761 17.1907 11.2962 16.4276 11.2962 15.8234C11.2962 15.2192 11.3761 14.4561 11.4729 13.7535Z" fill="black"/>
<path d="M0.176725 13.7535C0.345481 12.5286 1.30679 11.5729 2.539 11.4052C3.24574 11.309 4.01338 11.2295 4.62115 11.2295C5.22893 11.2295 5.99657 11.309 6.70331 11.4052C7.93551 11.5729 8.89683 12.5286 9.06558 13.7535C9.16237 14.4561 9.24231 15.2192 9.24231 15.8234C9.24231 16.4276 9.16237 17.1907 9.06558 17.8933C8.89683 19.1183 7.93551 20.0739 6.70331 20.2417C5.99657 20.3379 5.22893 20.4174 4.62115 20.4174C4.01338 20.4174 3.24574 20.3379 2.539 20.2417C1.30679 20.0739 0.345481 19.1183 0.176725 17.8933C0.0799341 17.1907 0 16.4276 0 15.8234C0 15.2192 0.0799341 14.4561 0.176725 13.7535Z" fill="black"/>
<path d="M11.4729 2.52405C11.6416 1.2991 12.603 0.343446 13.8352 0.175684C14.5419 0.0794633 15.3095 0 15.9173 0C16.5251 0 17.2927 0.0794633 17.9995 0.175684C19.2317 0.343446 20.193 1.2991 20.3617 2.52405C20.4585 3.22662 20.5385 3.98974 20.5385 4.59394C20.5385 5.19813 20.4585 5.96125 20.3617 6.66383C20.193 7.88877 19.2317 8.84443 17.9995 9.01219C17.2927 9.10841 16.5251 9.18787 15.9173 9.18787C15.3095 9.18787 14.5419 9.10841 13.8352 9.01219C12.603 8.84443 11.6416 7.88877 11.4729 6.66383C11.3761 5.96125 11.2962 5.19813 11.2962 4.59394C11.2962 3.98974 11.3761 3.22662 11.4729 2.52405Z" fill="black"/>
<path d="M0.176725 2.52405C0.345481 1.2991 1.30679 0.343446 2.539 0.175684C3.24574 0.0794633 4.01338 0 4.62115 0C5.22893 0 5.99657 0.0794633 6.70331 0.175684C7.93551 0.343446 8.89683 1.2991 9.06558 2.52405C9.16237 3.22662 9.24231 3.98974 9.24231 4.59394C9.24231 5.19813 9.16237 5.96125 9.06558 6.66383C8.89683 7.88877 7.93551 8.84443 6.70331 9.01219C5.99657 9.10841 5.22893 9.18787 4.62115 9.18787C4.01338 9.18787 3.24574 9.10841 2.539 9.01219C1.30679 8.84443 0.345481 7.88877 0.176725 6.66383C0.0799341 5.96125 0 5.19813 0 4.59394C0 3.98974 0.0799341 3.22662 0.176725 2.52405Z" fill="black"/>
</svg>
