<svg width="48" height="48" viewBox="0 0 48 48" fill="none" xmlns="http://www.w3.org/2000/svg">
<rect width="48" height="48" rx="12" fill="#EFF6FF"/>
<path d="M28.7 20C28.501 19.4352 28.1374 18.943 27.6563 18.5865C27.1751 18.2301 26.5983 18.0258 26 18H22C21.2044 18 20.4413 18.3161 19.8787 18.8787C19.3161 19.4413 19 20.2044 19 21C19 21.7956 19.3161 22.5587 19.8787 23.1213C20.4413 23.6839 21.2044 24 22 24H26C26.7956 24 27.5587 24.3161 28.1213 24.8787C28.6839 25.4413 29 26.2044 29 27C29 27.7956 28.6839 28.5587 28.1213 29.1213C27.5587 29.6839 26.7956 30 26 30H22C21.4017 29.9742 20.8249 29.7699 20.3437 29.4135C19.8626 29.057 19.499 28.5648 19.3 28" stroke="#2563EB" stroke-width="2" stroke-linecap="round" stroke-linejoin="round"/>
<path d="M24 30V33M24 15V18V15Z" stroke="#2563EB" stroke-width="2" stroke-linecap="round" stroke-linejoin="round"/>
</svg>
