<svg width="48" height="48" viewBox="0 0 48 48" fill="none" xmlns="http://www.w3.org/2000/svg">
<rect width="48" height="48" rx="12" fill="#FDF2F8"/>
<path d="M24 20V24L26 26" stroke="#ED4F9D" stroke-width="1.5" stroke-linecap="round" stroke-linejoin="round"/>
<path d="M15.05 23C15.2741 20.8001 16.3003 18.7596 17.9327 17.268C19.5652 15.7763 21.6897 14.9379 23.9009 14.9126C26.1121 14.8874 28.2552 15.6771 29.9213 17.131C31.5874 18.585 32.6599 20.6015 32.9342 22.7957C33.2085 24.99 32.6653 27.2084 31.4084 29.0278C30.1514 30.8471 28.2686 32.14 26.1193 32.6599C23.9699 33.1797 21.7044 32.89 19.755 31.8461C17.8056 30.8022 15.05 27 15.05 27M15.05 32V27M15.05 27H20.05" stroke="#ED4F9D" stroke-width="1.5" stroke-linecap="round" stroke-linejoin="round"/>
</svg>
